<?xml version="1.0" encoding="utf-8"?>
<!-- Generator: Adobe Illustrator 21.0.2, SVG Export Plug-In . SVG Version: 6.00 Build 0)  -->
<svg version="1.1" id="Layer_1" xmlns="http://www.w3.org/2000/svg" xmlns:xlink="http://www.w3.org/1999/xlink" x="0px" y="0px"
	 viewBox="0 0 40 40" style="enable-background:new 0 0 40 40;" xml:space="preserve">
<style type="text/css">
	.st0{fill:#7FE655;}
	.st1{fill:#FFFFFF;}
	.st2{fill:#A248F7;}
</style>
<g>
	<circle class="st0" cx="-37" cy="18" r="19"/>
	<g>
		<path class="st1" d="M-41.6,26.4c-0.1-0.1-0.2-0.1-0.3-0.2l-6.3-6.3c-0.2-0.2-0.3-0.5-0.3-0.8s0.1-0.5,0.3-0.8
			c0.2-0.2,0.5-0.3,0.8-0.3s0.5,0.1,0.8,0.3l5.5,5.6l14-14c0.2-0.2,0.5-0.3,0.8-0.3c0.3,0,0.5,0.1,0.8,0.3c0.2,0.2,0.3,0.5,0.3,0.8
			c0,0.3-0.1,0.5-0.3,0.8l-14.8,14.7c-0.1,0.1-0.2,0.2-0.3,0.2s-0.3,0.1-0.4,0.1S-41.5,26.4-41.6,26.4z"/>
	</g>
</g>
<g>
	<circle class="st2" cx="20" cy="20" r="19"/>
	<g>
		<path class="st1" d="M27.2,14.2c0.1,0.1,0.2,0.3,0.2,0.5s0,0.3,0,0.5l-0.6,3.6c0,0.3-0.2,0.6-0.5,0.9c-0.3,0.3-0.6,0.4-0.9,0.4
			l-8.9,0.8l0.2,1.3c0,0.1,0.1,0.3,0.2,0.4c0.1,0.1,0.3,0.1,0.4,0.1h8.9c0.1,0,0.2,0,0.3,0.1c0.1,0.1,0.1,0.2,0.1,0.3
			c0,0.1,0,0.2-0.1,0.3s-0.2,0.1-0.3,0.1h-8.9c-0.4,0-0.7-0.1-1-0.4c-0.3-0.2-0.5-0.5-0.5-0.9l-1.5-8.9c0-0.1-0.1-0.3-0.2-0.4
			c-0.1-0.1-0.2-0.1-0.4-0.1H13c-0.1,0-0.2,0-0.3-0.1c-0.1-0.1-0.1-0.2-0.1-0.3c0-0.1,0-0.2,0.1-0.3C12.7,12,12.8,12,13,12h0.9
			c0.4,0,0.7,0.1,1,0.4s0.5,0.5,0.5,0.9l0.1,0.5h10.9c0.2,0,0.4,0,0.5,0.1C27,14,27.1,14.1,27.2,14.2z M26.6,15c0-0.1,0-0.1,0-0.1
			c0,0,0-0.1-0.1-0.1c0,0-0.1-0.1-0.1-0.1c0,0-0.1,0-0.1,0H15.5l0.9,5.3l9-0.8c0.1,0,0.3-0.1,0.4-0.2c0.1-0.1,0.2-0.3,0.2-0.4
			L26.6,15z M18.7,28c0.5,0,0.9-0.2,1.3-0.5s0.5-0.8,0.5-1.3c0-0.5-0.2-0.9-0.5-1.3s-0.8-0.5-1.3-0.5c-0.5,0-0.9,0.2-1.3,0.5
			S17,25.7,17,26.2c0,0.5,0.2,0.9,0.5,1.3S18.2,28,18.7,28z M18.7,25.3c0.2,0,0.5,0.1,0.6,0.3c0.2,0.2,0.3,0.4,0.3,0.6
			c0,0.2-0.1,0.5-0.3,0.6c-0.2,0.2-0.4,0.3-0.6,0.3c-0.3,0-0.5-0.1-0.6-0.3c-0.2-0.2-0.3-0.4-0.3-0.6c0-0.2,0.1-0.5,0.3-0.6
			C18.3,25.4,18.5,25.3,18.7,25.3z M25,28c0.5,0,0.9-0.2,1.3-0.5s0.5-0.8,0.5-1.3c0-0.5-0.2-0.9-0.5-1.3s-0.8-0.5-1.3-0.5
			s-0.9,0.2-1.3,0.5s-0.5,0.8-0.5,1.3c0,0.5,0.2,0.9,0.5,1.3S24.5,28,25,28z M25,25.3c0.2,0,0.5,0.1,0.6,0.3
			c0.2,0.2,0.3,0.4,0.3,0.6c0,0.2-0.1,0.5-0.3,0.6c-0.2,0.2-0.4,0.3-0.6,0.3s-0.5-0.1-0.6-0.3c-0.2-0.2-0.3-0.4-0.3-0.6
			c0-0.2,0.1-0.5,0.3-0.6C24.5,25.4,24.7,25.3,25,25.3z"/>
	</g>
</g>
<text transform="matrix(1 0 0 1 57.625 6.875)" style="font-family:'icomoon'; font-size:12px;"></text>
</svg>
