<?xml version="1.0" encoding="utf-8"?>
<!-- Generator: Adobe Illustrator 21.0.2, SVG Export Plug-In . SVG Version: 6.00 Build 0)  -->
<svg version="1.1" xmlns="http://www.w3.org/2000/svg" xmlns:xlink="http://www.w3.org/1999/xlink" x="0px" y="0px"
	 viewBox="0 0 170 86.4" style="enable-background:new 0 0 170 86.4;" xml:space="preserve">
<style type="text/css">
	.st0{fill:#FFFFFF;}
</style>
<g id="p">
</g>
<g id="p_x5F_cut">
</g>
<g id="doh">
</g>
<g id="doh_x5F_cut">
</g>
<g id="arty">
</g>
<g id="arty_x5F_cut">
	<g>
		<path class="st0" d="M151.1,14.9c0.1-2.3,1.3-4.3,1.9-5.3c-0.3-0.3-0.5-0.6-0.8-0.8c-1.4,1.4-1.9,4.1-2,5.4
			C150.7,15,151.1,14.9,151.1,14.9z"/>
		<path class="st0" d="M23.1,17.3c-1-0.1-2.1-0.1-3.1,0c0,0-1.7-0.1-0.9,1.2c2.2,3.4-0.8,11.9-0.9,12.3c-0.9,3.2-2.5,6.2-4.3,9.1
			c-1.1-1-2.1-2.1-3-3.2c-1.7-2.2-2.1-4.8-2-7.5C9,25.4,10.6,22,13,19.3c4.2-4.6,10.4-7.4,16.4-8.5c3-0.6,9.5-1.9,11.7,1.1
			c1,1.4,0.5,3.3-0.2,4.8c-3.2,7.1-9.1,10.4-12.5,11.7l-1.9,4.3c1.8-0.6,3.9-1.4,6.1-2.6C40.7,25.7,49.4,19,49.5,8.9
			C49.6,7,49.1,5,48,3.5c-1.7-2.3-4.6-3.4-7.5-3.5c-6-0.1-12.2,2.6-17.5,5.3c-7,3.5-14.1,8.2-18.7,14.8c-3.6,5.3-6.9,13.5-1.2,18.5
			c1.8,1.6,4,3.1,6.2,4.8c0.1,0.1,0.1,0.1,0.2,0.2c0.5,0.4,0.9,0.7,1.3,1.1c4.3,3.7,7.8,8.6,5.2,14.4c-0.2,0.5-0.5,1.1-1,1.4
			c-1.7,1.1-2.6-1.5-2.7-2.7c-0.2-2.3,1-4.7,2.1-6.6c0.1-0.1,0.1-0.3,0.2-0.4c-1.1-1.7-3-3.5-4.6-4.8c-2.7,4.5-4.8,9.1-4.1,14.7
			c0.1,1.2,0.5,2.3,1.2,3.3c1.2,1.6,3.6,2,5.4,1.4c3.9-1.4,5.8-6.4,6.3-10.2c0.3-2.5,0.4-5,0.1-7.5c-0.2-1-0.4-2.1-0.8-3.1
			c2.6-3.8,5.1-7.8,6.9-12.1C26.9,28.1,30.7,18.1,23.1,17.3z"/>
		<path class="st0" d="M169.6,40c0.8-3.9,0.5-8.6-3-11.1c-4.8-3.3-11.8-0.6-15.3,3.4c-1.8,2.1-2.8,4.1-5,5.9
			c0.6-0.5-1.4-4.4-1.7-4.9c-2.6-4.3-8-4.5-11.4-1.1c-1.9,1.8-2.5,4.6-2.2,7.1c0,0.2,0.1,0.5,0.1,0.7c0,0,1.6,5.4,7.7,5.6
			c0.8,0,1.7,0,2.7-0.2c0.1,0,0.2,0,0.3,0c0,0-0.2,0.7-0.6,1.6c-0.7,1.6-2,4-4,5c-1,0.5-2.2,0.6-3.6,0c-1.1-0.5-1.8-1.3-2.2-2.3
			c-0.8-1.8-0.9-4.1-0.8-6c-2.1-5.7-0.3-9.8,2.1-12.4c-9.2,5.1-6.4,19.2-6.4,19.2c-2.3,2.9-3.7,0.6-3.7,0.6
			c-1.9-3.3-0.1-19.8-0.1-19.8c2.1-4.7,2.1-13.3,1.2-13.7c0.3,0.1-0.2,2.9-0.2,3.2c-0.2,1.7-0.6,3.4-1.2,5.1
			c-0.7,1.7-1.6,3.4-3.1,4.6c-1.8,1.5-4.5,1.8-6.6,3c-1.9,1.1-3.7,2.4-5.3,4c-2.6,2.7-4.4,6.1-5.2,9.8c-0.7,3.7-0.7,11.5,4.3,12.6
			c6.6,1.5,10.4-6.7,10.4-6.7s1.1,7.6,5.5,7.2c4.4-0.3,5.7-4.4,5.7-4.4c3.4,5.6,7,4.5,7,4.5c10.4-1.2,11.7-16.7,11.7-16.7
			c1.3-0.4,2.4-1.6,2.4-1.6l-1.2,17.9c0,0.2,0.2,0.4,0.4,0.4l5.9,0.2c0.3,0,0.6-0.2,0.6-0.5l0.7-11.5c0.2-2.8,0.3-5.6,0.5-8.4
			c0.3-3.4,0.5-7.5,3.8-9.5c1-0.6,2.1-0.7,3,0.1c0.6,0.5,0.9,1.2,1.1,2c0.9,3.9-0.4,7.8-1.3,11.5c-1.3,5.5-1.9,11.2-1.7,16.8
			c0,0.7,0.2,1.5,0.5,2.2c0.1,0.2,0.2,0.4,0.4,0.5c0.2,0.1,0.5,0.1,0.8,0c1.7-0.3,3.2-1,4.6-2c0.4-0.3,0.5-0.8,0.4-1.3
			c-1.1-4-1.3-8.3-0.4-12.4C167.8,45.6,169,42.9,169.6,40z M107.4,51c-3.1-5.5,5.2-13.1,8.3-14.3c0,0-0.5,9.3,0.1,11.3
			C115.8,48,110.4,56.5,107.4,51z M142.3,40.7c0,0-1.5,1.4-4.5,0.7c-2.4-0.6-3-2.8-2.6-5c0.2-1,0.9-1.8,1.9-2.1
			C139.4,33.6,142.9,34.5,142.3,40.7z"/>
		<path class="st0" d="M122.9,17.6c-0.7-0.1-1.6,0-2.3,0c-0.6,0-1.2,0.3-1.6,0.8c-2.4,3.1-2.8,9.2-2.9,12
			C118.5,29.8,123,27.2,122.9,17.6z"/>
		<path class="st0" d="M157.7,15.8c2-1.3,3.5-4.4,3.7-6.4C160,9.7,157.3,11,157.7,15.8z"/>
		<path class="st0" d="M149.5,32c2.4-2.5,4.7-3.9,6.9-4.6c0.1-3.5,0.9-11.3,0.9-11.3s-1.2-6.8,3.9-8.3c-0.5-1.2-1.7-1.9-3.6-1.7
			c-2.4,0.3-4.7,3.7-4.7,3.7c0,0,0,0,0,0c-0.6,0.9-1.8,3-1.9,5.3C150.8,15.8,150,26.4,149.5,32z"/>
		<path class="st0" d="M144.5,11.6c3.3-3.1,4.2-0.5,4.2-0.5c0.5,1.7,1,2.6,1.4,3.2c0.2-1.3,0.7-3.9,2-5.4c-1.2-0.9-2.7-0.9-2.7-0.9
			C144,8.4,141.3,14.7,144.5,11.6z"/>
		<path class="st0" d="M153,9.7c0.2-0.3,0.4-0.6,0.4-0.6l-1.2-0.3c0,0,0,0,0,0C152.4,9.1,152.7,9.3,153,9.7z"/>
		<path class="st0" d="M150.1,14.2c-0.1,0.4-0.1,0.7-0.1,0.7h1C151.1,14.9,150.7,15,150.1,14.2z"/>
		<path class="st0" d="M93.3,67.8c1.7,0.1,3.7,0.2,5.3,0.2c0.6-1.6,0.9-3.3,1-5.3c0.2-4.6-1.9-8.3-2.5-12.8c0-0.2,0-0.4,0-0.6
			c-0.7,1.6-1.4,3.3-2.1,4.8c2,3.2,1.7,7.6,0,10.9C94.4,66,93.9,66.9,93.3,67.8z"/>
		<path class="st0" d="M40.7,30.7c2-0.9,3.3-2,4-2.9c-0.7-0.1-1.6,0.2-2.2,0.6C41.6,29.1,41.3,30,40.7,30.7z"/>
		<path class="st0" d="M56,34.8c1.2-0.8,2.8,0.7,3,1.8c0.2,1.6-0.5,3.2-0.3,4.7c0.2,1.5,1.4,2.8,2.9,3.2c1,0.2,2.2,0.2,2.6,1.1
			c0.3,0.6,0,1.3-0.3,1.9c-1.6,3.8-2.4,8.6,0.7,11.6c0.9,0.9,2.2,1.5,3.5,1.7c4.6,0.7,8.2-2.8,9.1-6.8c1,3.8,4.8,6.7,8.8,6.5
			c3.6-0.2,6.1-2.7,7.6-5.7c1.7-3.2,2.8-6.7,3.7-10.3c0.5-2,0.9-4.1,1.2-6.2c0.4-2.9,0.4-5.8,0-8.6c-0.1-0.6-0.2-1.3-0.7-1.7
			c-0.4-0.4-1.1-0.5-1.6-0.5c-2.9,0.2-4.7,3.5-4.8,6.4c-0.1,2.9,0.9,5.8,0.8,8.7c0,0.4-0.1,0.9-0.1,1.3c0.6-2.4,1.3-6,1.1-9.9
			c0-0.4,0.3-0.7,0.7-0.7c0.5,0,1,0.5,0.9,1c-0.4,2.6-1.6,9.7-3.4,12.5c-0.9,2.2-2.6,4.2-4.6,5.5c-0.6,0.4-1.3,0.7-2.1,0.7
			c-1.4-0.1-2.2-1.6-2.6-3c-1.9-7.1,1.8-14.3,5.5-20.7c0.1-0.2,0.1-0.6-0.2-0.7c-1-0.6-2.5-0.5-3.6,0.2c-1.2,0.8-2,2.1-2.7,3.3
			c-2.3,4.4-3.7,9.3-4.2,14.3c-0.2,1.7-0.2,3.4-1.1,4.8c-1.1,1.8-4.1,2.8-5.2,0.1c-0.3-0.7-0.3-1.5-0.2-2.3c0.4-2.3,0.7-4.5,1.1-6.8
			c0.6-3.9,1.5-7.9,1.7-11.9c0.1-3.6-0.6-7.2-2.2-10.4c-0.6-1.1-1.3-2.3-2.9-2.3c-0.9,0-1.7,0.5-2.3,1.2c-1.3,1.7-1,3.9-0.3,5.8
			c0.6,1.6,1.5,3,2,4.7c0,0.1,0.1,0.2,0.1,0.3c-0.2-2.2-0.5-4.3-1.2-6.3c0.3,0,0.6,0,0.9,0c0.1,0,0.1,0,0.2,0.1c0,0,0,0.1,0.1,0.1
			c0.2,1.2,0.4,2.6,0.4,3.8c0.3,3.8,0.1,7.4-0.5,11.1c-0.2,1.4-0.5,2.8-1.6,3.8c-0.6,0.5-1.4,0.8-2.2,0.6c-1.6-0.4-1.8-2.4-1.6-4
			c0.5-2.8,1.8-5.4,2.3-8.2c0.2-0.8,0.2-1.9-0.6-2.4c-0.3-0.2-0.7-0.2-1.1-0.1c-2.2,0.2-4.3,0.9-6.3,2c-0.7,0.4-1.5,0.9-2.3,1
			c-1.8,0.3-2.7-0.8-2.9-2.4c-1.2,1.2-1.5,3.2-0.7,4.7C51.6,35.6,54.1,36.1,56,34.8z M72.9,33.5l-0.1,0.3l0,0
			C72.8,33.7,72.9,33.6,72.9,33.5z M51.5,34.6L51.5,34.6L51.5,34.6L51.5,34.6z"/>
		<path class="st0" d="M76.9,31.2c0.9-0.9,1.1-2.3,1.1-3.6c0-0.2-0.2-0.3-0.4-0.2c-1.1,0.4-2.4,0.6-3.6,0.5c0.2,1.3,0.2,2.9,0.2,4.1
			C75.2,32.2,76.3,31.9,76.9,31.2z"/>
		<path class="st0" d="M55.1,29.4c-0.5-1-1.8-1.6-2.9-1.3c0,0-0.1,0-0.1,0C51.9,30.4,53.5,30.1,55.1,29.4z"/>
		<path class="st0" d="M33.7,59.6c2.8-1.4,4.5-4,6.1-6.5c0.4,1.8,0.7,3.6,1.8,5.1c1,1.5,2.9,2.6,4.6,2.1c1.2-0.3,2.1-1.2,2.9-2.1
			c5-6,6-14.3,6.6-22.1c-0.5,0.3-1.5,1-3,0.9c-0.6,4.4-1.8,8.8-3.6,12.9c-0.6,1.3-1.4,2.8-3.1,2.5c-1.1-0.1-2-0.9-2.4-1.9
			c-3-6.9-0.6-14.4,2-21.3c-1.5,1.1-3.4,1.8-5.1,2.5c-1.8,0.7-3.8,1.3-5.5,2.3c-1.8,1.1-3.4,2.7-4.8,4.4c-2.6,3.2-4.3,7-5,11.1
			c-0.1,0.5-0.1,1-0.2,1.5c-0.3,3.8,0.8,8.4,4.9,9.1C31.2,60.4,32.5,60.1,33.7,59.6z M30.5,47.1c2.9-10.7,9.9-12.5,9.9-12.5
			c-1.9,4.8-1.6,13.7-1.6,13.7C37.7,52.9,27.6,57.8,30.5,47.1z"/>
		<path class="st0" d="M130.9,63.4c-5-0.6-10,0.5-14.8,1.9c-4.8,1.4-9.6,3.1-14.6,3.7c-1.1,0.2-2.3,0.3-3.5,0.3
			c-2,0-4.1-0.1-5.7-0.3c-1.8-0.2-3.1-0.5-3.1-0.5l0,0c-6.5-1.1-13-3-19.6-4.1c-12.4-2-25.3-0.9-37.1,3.4c-1.9,0.7-4,1.6-4.8,3.5
			c-0.7,1.7-0.1,3.8,1,5.2c11.2,14.2,36.5,10.4,51.1,5.5c3.6-1.2,7.2-2.6,10.3-4.4l-6.6-2.8c-2.9,1.1-6,1.8-9.1,2.2
			c-13.3,1.8-33.3,0.4-40-2.4c-2.4-1-4-2.9-0.9-4c15.1-5.1,31.9-3.6,46.9,1.7c0.8,0.3,1.6,0.6,2.4,0.9c0.6,0.2,1.3,0.5,1.9,0.7
			c0.2,0.1,0.3,0.1,0.5,0.2c1.8,0.7,4.4,1.6,6.7,2.3c0.7,0.2,1.3,0.4,1.9,0.6c3.2,0.9,6.4,1.4,9.6,1.2c5.8-0.3,11.4-2.7,16.3-5.7
			c3.8-2.3,7.6-5,11.9-5.2c4-0.2,7.7,1.8,11,4.1C140.8,66.8,135.8,64.1,130.9,63.4z"/>
		<polygon class="st0" points="51.5,34.6 51.5,34.6 51.5,34.6 		"/>
		<path class="st0" d="M72.9,33.5c0,0.1-0.1,0.2-0.1,0.3l0,0L72.9,33.5z"/>
		<path class="st0" d="M92.3,68.9c1.6,0.2,3.6,0.4,5.7,0.3c0,0,0-0.1,0-0.1C96.1,69.2,94.2,69.1,92.3,68.9c-1-0.2-2-0.3-3.1-0.5l0,0
			C89.3,68.5,90.5,68.7,92.3,68.9z"/>
		<path class="st0" d="M85.4,74c-0.2-0.1-0.4-0.1-0.5-0.2C85,73.8,85.2,73.9,85.4,74c2.2,0.8,4.4,1.6,6.6,2.3c0.7,0.2,1.3,0.4,2,0.6
			c-0.6-0.2-1.3-0.4-1.9-0.6C89.8,75.6,87.2,74.6,85.4,74z"/>
	</g>
</g>
<g id="blob">
</g>
</svg>
