<?xml version="1.0" encoding="utf-8"?>
<!-- Generator: Adobe Illustrator 21.0.2, SVG Export Plug-In . SVG Version: 6.00 Build 0)  -->
<svg version="1.1" id="Layer_1" xmlns="http://www.w3.org/2000/svg" xmlns:xlink="http://www.w3.org/1999/xlink" x="0px" y="0px"
	 viewBox="0 0 40 40" style="enable-background:new 0 0 40 40;" xml:space="preserve">
<style type="text/css">
	.st0{fill:#7FE655;}
	.st1{fill:#FFFFFF;}
</style>
<g>
	<circle class="st0" cx="20" cy="20" r="19"/>
	<g>
		<path class="st1" d="M15.4,28.4c-0.1-0.1-0.2-0.1-0.3-0.2l-6.3-6.3c-0.2-0.2-0.3-0.5-0.3-0.8s0.1-0.5,0.3-0.8
			C8.9,20.1,9.2,20,9.5,20c0.3,0,0.5,0.1,0.8,0.3l5.5,5.6l14-14c0.2-0.2,0.5-0.3,0.8-0.3c0.3,0,0.5,0.1,0.8,0.3
			c0.2,0.2,0.3,0.5,0.3,0.8c0,0.3-0.1,0.5-0.3,0.8L16.5,28.1c-0.1,0.1-0.2,0.2-0.3,0.2s-0.3,0.1-0.4,0.1S15.5,28.4,15.4,28.4z"/>
	</g>
</g>
</svg>
